<?xml version="1.0" encoding="utf-8"?>
<!-- Generator: Adobe Illustrator 16.0.0, SVG Export Plug-In . SVG Version: 6.00 Build 0)  -->
<!DOCTYPE svg PUBLIC "-//W3C//DTD SVG 1.1//EN" "http://www.w3.org/Graphics/SVG/1.1/DTD/svg11.dtd">
<svg version="1.1" id="Layer_1" xmlns="http://www.w3.org/2000/svg" xmlns:xlink="http://www.w3.org/1999/xlink" x="0px" y="0px"
	 width="300px" height="400px" viewBox="0 0 300 400" enable-background="new 0 0 300 400" xml:space="preserve">
<g>
	<path fill="#FFFFFF" d="M184.307,0C120.41,0,68.613,51.798,68.613,115.693c0,35.84,16.298,67.871,41.886,89.093
		c-28.387,25.066-69.531,78.15-90,112.021c-29.12,48.18-23.249,68.795-6.687,78.804c16.563,10.011,37.542,5.625,66.66-42.555
		c20.412-33.771,48.178-94.616,57.257-131.437c14.252,6.276,30.006,9.768,46.578,9.768c63.896,0,115.693-51.798,115.693-115.694
		C300,51.798,248.202,0,184.307,0z M184.307,200.216c-46.681,0-84.521-37.842-84.521-84.522s37.841-84.522,84.521-84.522
		c46.68,0,84.521,37.842,84.521,84.522S230.986,200.216,184.307,200.216z"/>
</g>
</svg>
