<?xml version="1.0" encoding="utf-8"?>
<!-- Generator: Adobe Illustrator 16.0.0, SVG Export Plug-In . SVG Version: 6.00 Build 0)  -->
<!DOCTYPE svg PUBLIC "-//W3C//DTD SVG 1.1//EN" "http://www.w3.org/Graphics/SVG/1.1/DTD/svg11.dtd">
<svg version="1.1" id="Layer_1" xmlns="http://www.w3.org/2000/svg" xmlns:xlink="http://www.w3.org/1999/xlink" x="0px" y="0px"
	 width="300px" height="400px" viewBox="0 0 300 400" enable-background="new 0 0 300 400" xml:space="preserve">
<polygon fill="#FFFFFF" points="40.889,307.445 138.44,352.698 259.11,92.556 161.559,47.301 "/>
<path fill="#FFFFFF" d="M242.942,41.186c-2.781,5.984-8.829,10.144-15.862,10.144c-9.664,0-17.5-7.835-17.5-17.5
	c0-2.633,0.598-5.12,1.64-7.36L154.16,0L0,332.346l57.056,26.469c2.782-5.983,8.829-10.141,15.861-10.141
	c9.664,0,17.5,7.834,17.5,17.5c0,2.632-0.597,5.118-1.638,7.356L145.838,400L300,67.655L242.942,41.186z M140.872,359.339
	L34.25,309.877L159.127,40.662l106.624,49.462l-1.053,2.268L140.872,359.339z"/>
</svg>
