<?xml version="1.0" encoding="utf-8"?>
<!-- Generator: Adobe Illustrator 28.2.0, SVG Export Plug-In . SVG Version: 6.00 Build 0)  -->
<svg version="1.1" xmlns="http://www.w3.org/2000/svg" xmlns:xlink="http://www.w3.org/1999/xlink" x="0px" y="0px"
	 viewBox="0 0 30 30" enable-background="new 0 0 30 30" xml:space="preserve">
<g id="Layer_1" display="none">
	<g display="inline">
		<path d="M499,1v498H1V1H499 M500,0H0v500h500V0L500,0z"/>
	</g>
	<g display="inline">
		<path d="M250,1c33.615,0,66.224,6.583,96.922,19.567c29.651,12.541,56.28,30.495,79.148,53.363
			c22.868,22.868,40.822,49.497,53.363,79.148C492.417,183.776,499,216.385,499,250s-6.583,66.224-19.567,96.922
			c-12.541,29.651-30.495,56.28-53.363,79.148c-22.868,22.868-49.497,40.822-79.148,53.363C316.224,492.417,283.615,499,250,499
			s-66.224-6.583-96.922-19.567c-29.651-12.541-56.28-30.495-79.148-53.363c-22.868-22.868-40.822-49.497-53.363-79.148
			C7.583,316.224,1,283.615,1,250s6.583-66.224,19.567-96.922c12.541-29.651,30.495-56.28,53.363-79.148
			s49.497-40.822,79.148-53.363C183.776,7.583,216.385,1,250,1 M250,0C111.929,0,0,111.929,0,250s111.929,250,250,250
			s250-111.929,250-250S388.071,0,250,0L250,0z"/>
	</g>
	<line display="inline" fill="none" stroke="#000000" stroke-miterlimit="10" x1="0" y1="250" x2="500" y2="250"/>
	<line display="inline" fill="none" stroke="#000000" stroke-miterlimit="10" x1="250" y1="0" x2="250" y2="500"/>
	<line display="inline" fill="none" stroke="#000000" stroke-miterlimit="10" x1="0" y1="0" x2="500" y2="500"/>
	<line display="inline" fill="none" stroke="#000000" stroke-miterlimit="10" x1="500" y1="0" x2="0" y2="500"/>
	<g display="inline">
		<path d="M426.184,73.816v352.368H73.816V73.816H426.184 M426.891,73.109H73.109v353.783h353.783V73.109L426.891,73.109z"/>
	</g>
	<g display="inline">
		<path d="M374.581,125.419v249.161H125.419V125.419H374.581 M375.081,124.919H124.919v250.162h250.162V124.919L375.081,124.919z"/>
	</g>
	<g display="inline">
		<path d="M338.092,161.908v176.184H161.908V161.908H338.092 M338.446,161.554H161.554v176.891h176.891V161.554L338.446,161.554z"/>
	</g>
	<g display="inline">
		<path d="M312.29,187.71V312.29H187.71V187.71H312.29 M312.541,187.459H187.459v125.081h125.081V187.459L312.541,187.459z"/>
	</g>
	<g display="inline">
		<path d="M250,73.816c47.06,0,91.304,18.326,124.581,51.603S426.184,202.94,426.184,250s-18.326,91.304-51.603,124.581
			S297.06,426.184,250,426.184s-91.304-18.326-124.581-51.603S73.816,297.06,73.816,250s18.326-91.304,51.603-124.581
			S202.94,73.816,250,73.816 M250,73.109c-97.694,0-176.891,79.197-176.891,176.891S152.306,426.891,250,426.891
			S426.891,347.694,426.891,250S347.694,73.109,250,73.109L250,73.109z"/>
	</g>
	<g display="inline">
		<path d="M250,125.419c33.277,0,64.562,12.959,88.092,36.489c23.53,23.53,36.489,54.815,36.489,88.092
			s-12.959,64.562-36.489,88.092c-23.53,23.53-54.815,36.489-88.092,36.489s-64.562-12.959-88.092-36.489
			c-23.53-23.53-36.489-54.815-36.489-88.092s12.959-64.562,36.489-88.092C185.438,138.378,216.723,125.419,250,125.419
			 M250,124.919c-69.08,0-125.081,56.001-125.081,125.081S180.92,375.081,250,375.081S375.081,319.08,375.081,250
			S319.08,124.919,250,124.919L250,124.919z"/>
	</g>
	<g display="inline">
		<path d="M250,161.908c48.574,0,88.092,39.518,88.092,88.092S298.574,338.092,250,338.092S161.908,298.574,161.908,250
			S201.426,161.908,250,161.908 M250,161.554c-48.847,0-88.446,39.598-88.446,88.446s39.598,88.446,88.446,88.446
			s88.446-39.598,88.446-88.446S298.847,161.554,250,161.554L250,161.554z"/>
	</g>
	<g display="inline">
		<path d="M250,187.71c34.347,0,62.29,27.943,62.29,62.29s-27.943,62.29-62.29,62.29s-62.29-27.943-62.29-62.29
			S215.653,187.71,250,187.71 M250,187.459c-34.54,0-62.541,28-62.541,62.541s28,62.541,62.541,62.541s62.541-28,62.541-62.541
			S284.54,187.459,250,187.459L250,187.459z"/>
	</g>
</g>
<g id="Layer_2">
	<g>
		<g>
			<path fill="#FFFFFF" d="M27,0H3C1.35,0,0,1.35,0,3v0c0,1.65,1.35,3,3,3h24c1.65,0,3-1.35,3-3v0C30,1.35,28.65,0,27,0z"/>
		</g>
		<g>
			<path fill="#FFFFFF" d="M27,12H3c-1.65,0-3,1.35-3,3v0c0,1.65,1.35,3,3,3h24c1.65,0,3-1.35,3-3v0C30,13.35,28.65,12,27,12z"/>
		</g>
		<g>
			<path fill="#FFFFFF" d="M27,24H3c-1.65,0-3,1.35-3,3v0c0,1.65,1.35,3,3,3h24c1.65,0,3-1.35,3-3v0C30,25.35,28.65,24,27,24z"/>
		</g>
	</g>
</g>
</svg>
