<?xml version="1.0" encoding="utf-8"?>
<!-- Generator: Adobe Illustrator 16.0.0, SVG Export Plug-In . SVG Version: 6.00 Build 0)  -->
<!DOCTYPE svg PUBLIC "-//W3C//DTD SVG 1.1//EN" "http://www.w3.org/Graphics/SVG/1.1/DTD/svg11.dtd">
<svg version="1.1" id="Layer_1" xmlns="http://www.w3.org/2000/svg" xmlns:xlink="http://www.w3.org/1999/xlink" x="0px" y="0px"
	 width="100px" height="100px" viewBox="0 0 100 100" enable-background="new 0 0 100 100" xml:space="preserve">
<path fill="#FFFFFF" d="M100,72.5c0,15.188-12.313,27.5-27.5,27.5h-45C12.312,100,0,87.688,0,72.5v-45C0,12.312,12.312,0,27.5,0h45
	C87.688,0,100,12.312,100,27.5V72.5z M95,27.5C95,15.074,84.927,5,72.5,5h-45C15.074,5,5,15.074,5,27.5v45
	C5,84.927,15.074,95,27.5,95h45C84.927,95,95,84.927,95,72.5V27.5z"/>
<g>
	<path fill="#FFFFFF" d="M41.094,80V48.627h-5.325v-9.32h5.325v-1.582c0-4.91,1.499-10.319,5.161-13.647
		C49.417,21.082,53.826,20,57.488,20c2.83,0,4.992,0.333,6.742,0.833l-0.5,9.736c-1.082-0.333-2.414-0.582-4.078-0.582
		c-4.162,0-5.908,3.245-5.908,7.24v2.081h8.154v9.32h-8.072V80H41.094z"/>
</g>
</svg>
