<?xml version="1.0" encoding="utf-8"?>
<!-- Generator: Adobe Illustrator 28.2.0, SVG Export Plug-In . SVG Version: 6.00 Build 0)  -->
<svg version="1.1" xmlns="http://www.w3.org/2000/svg" xmlns:xlink="http://www.w3.org/1999/xlink" x="0px" y="0px"
	 viewBox="0 0 30 30" enable-background="new 0 0 30 30" xml:space="preserve">
<g id="guide" display="none">
</g>
<g id="Layer_2">
	<g>
		<path d="M21.011,0H8.989C4.033,0,0,4.033,0,8.989V21.01C0,25.967,4.033,30,8.989,30h12.021C25.967,30,30,25.967,30,21.01V8.989
			C30,4.033,25.967,0,21.011,0z M27.655,21.01c0,3.664-2.981,6.644-6.644,6.644H8.989c-3.664,0-6.644-2.981-6.644-6.644V8.989
			c0-3.664,2.981-6.644,6.644-6.644h12.021c3.664,0,6.644,2.981,6.644,6.644V21.01z"/>
		<path d="M15,7.138c-4.335,0-7.862,3.527-7.862,7.862s3.527,7.862,7.862,7.862s7.862-3.527,7.862-7.862S19.335,7.138,15,7.138z
			 M15,20.965c-3.289,0-5.965-2.676-5.965-5.965S11.711,9.035,15,9.035s5.965,2.676,5.965,5.965S18.289,20.965,15,20.965z"/>
		<circle cx="23.136" cy="6.864" r="1.641"/>
	</g>
</g>
</svg>
